<svg width="50" height="50" viewBox="0 0 50 50" fill="none" xmlns="http://www.w3.org/2000/svg">
<g id="carbon:logo-yelp">
<path id="Vector" fill-rule="evenodd" clip-rule="evenodd" d="M13.2953 23.7265L21.2016 27.5812C22.7219 28.3234 22.4875 30.5593 20.8453 30.9687L12.3109 33.0968C11.2469 33.3625 10.1953 32.6281 10.0703 31.5375C9.80729 29.2573 10.0506 26.9472 10.7828 24.7718C10.8654 24.5279 10.9991 24.3044 11.1749 24.1162C11.3507 23.928 11.5646 23.7794 11.8024 23.6803C12.0401 23.5813 12.2962 23.534 12.5536 23.5417C12.8111 23.5494 13.0639 23.6119 13.2953 23.725M16.4609 40L22.3453 33.464C23.4766 32.2062 25.5625 33.05 25.5016 34.7406L25.1953 43.5328C25.1862 43.7909 25.1221 44.0442 25.0072 44.2756C24.8923 44.5069 24.7294 44.7111 24.5292 44.8744C24.3291 45.0377 24.0964 45.1564 23.8467 45.2225C23.5969 45.2886 23.336 45.3007 23.0812 45.2578C20.8201 44.8767 18.6695 44.0065 16.7797 42.7078C16.567 42.5615 16.388 42.3715 16.2546 42.1505C16.1213 41.9295 16.0367 41.6825 16.0065 41.4261C15.9763 41.1698 16.0012 40.9099 16.0796 40.664C16.158 40.418 16.288 40.1916 16.4609 40ZM30.4125 31.3031L38.7766 34.0219C39.8172 34.3594 40.325 35.5375 39.8547 36.525C38.8673 38.5947 37.4398 40.4238 35.6719 41.8843C35.4727 42.0489 35.2406 42.169 34.9912 42.2366C34.7418 42.3042 34.4809 42.3177 34.2258 42.2763C33.9708 42.2349 33.7275 42.1394 33.5123 41.9964C33.2972 41.8534 33.115 41.666 32.9781 41.4468L28.3156 33.9859C27.4187 32.5515 28.8031 30.7797 30.4125 31.3031ZM38.9188 25.9672L30.4641 28.3922C28.8375 28.8578 27.5156 27.039 28.4609 25.6359L33.3813 18.3437C33.5251 18.1302 33.7127 17.9498 33.9317 17.8145C34.1507 17.6791 34.3961 17.592 34.6514 17.5589C34.9067 17.5258 35.1661 17.5474 35.4124 17.6224C35.6587 17.6974 35.8861 17.824 36.0797 17.9937C37.8016 19.5116 39.1674 21.3906 40.0797 23.4968C40.183 23.7337 40.2345 23.9898 40.2309 24.2482C40.2273 24.5065 40.1686 24.7611 40.0587 24.9949C39.9488 25.2288 39.7903 25.4364 39.5937 25.6041C39.3971 25.7718 39.167 25.8955 38.9188 25.9672ZM19.1625 5.45154C17.6406 5.85779 16.1891 6.39685 14.8156 7.05154C14.5904 7.15963 14.3899 7.31311 14.2269 7.50235C14.0638 7.69159 13.9416 7.91251 13.8679 8.15122C13.7942 8.38994 13.7707 8.64131 13.7988 8.88954C13.827 9.13778 13.9061 9.37752 14.0312 9.59372L22.2953 23.9062C23.2219 25.5125 25.6766 24.8547 25.6766 23V6.47341C25.6769 6.22363 25.6255 5.97648 25.5258 5.74748C25.426 5.51848 25.28 5.31257 25.0969 5.14267C24.9138 4.97277 24.6975 4.84255 24.4617 4.76019C24.2259 4.67782 23.9756 4.64509 23.7266 4.66404C22.2109 4.78435 20.6844 5.04372 19.1625 5.45154Z" fill="url(#paint0_linear_320_15785)"/>
</g>
<defs>
<linearGradient id="paint0_linear_320_15785" x1="25.0993" y1="4.65881" x2="25.0993" y2="45.283" gradientUnits="userSpaceOnUse">
<stop stop-color="#0061FF"/>
<stop offset="1" stop-color="#60EFFF"/>
</linearGradient>
</defs>
</svg>
