<svg width="20" height="20" viewBox="0 0 20 20" fill="none" xmlns="http://www.w3.org/2000/svg">
<g id="u:chat">
<path id="Vector" d="M15 1.66699H5C4.33696 1.66699 3.70107 1.93038 3.23223 2.39923C2.76339 2.86807 2.5 3.50395 2.5 4.16699V13.3337C2.5 13.9967 2.76339 14.6326 3.23223 15.1014C3.70107 15.5703 4.33696 15.8337 5 15.8337H7.15833L9.40833 18.092C9.4862 18.1692 9.57855 18.2303 9.68008 18.2718C9.78161 18.3133 9.89033 18.3343 10 18.3337C10.1986 18.3337 10.3907 18.2627 10.5417 18.1337L13.225 15.8337H15C15.663 15.8337 16.2989 15.5703 16.7678 15.1014C17.2366 14.6326 17.5 13.9967 17.5 13.3337V4.16699C17.5 3.50395 17.2366 2.86807 16.7678 2.39923C16.2989 1.93038 15.663 1.66699 15 1.66699ZM15.8333 13.3337C15.8333 13.5547 15.7455 13.7666 15.5893 13.9229C15.433 14.0792 15.221 14.167 15 14.167H12.9167C12.718 14.167 12.526 14.2379 12.375 14.367L10.0417 16.367L8.09167 14.4087C8.0138 14.3314 7.92145 14.2703 7.81992 14.2288C7.71839 14.1874 7.60967 14.1664 7.5 14.167H5C4.77899 14.167 4.56702 14.0792 4.41074 13.9229C4.25446 13.7666 4.16667 13.5547 4.16667 13.3337V4.16699C4.16667 3.94598 4.25446 3.73402 4.41074 3.57774C4.56702 3.42146 4.77899 3.33366 5 3.33366H15C15.221 3.33366 15.433 3.42146 15.5893 3.57774C15.7455 3.73402 15.8333 3.94598 15.8333 4.16699V13.3337Z" fill="#71839B"/>
</g>
</svg>
