<svg width="34" height="33" viewBox="0 0 34 33" fill="none" xmlns="http://www.w3.org/2000/svg">
<g id="bell 1" opacity="0.5" clip-path="url(#clip0_2157_38045)">
<path id="Vector" d="M24.6503 17.4001L24.3014 15.5068C24.2646 15.3107 24.1478 15.1305 23.9811 15.0146C22.5782 14.0854 21.5973 12.6042 21.2925 10.9641L21.0716 9.7601C20.6668 7.57603 18.9697 5.89731 16.8297 5.50101L16.7141 4.87697C16.6179 4.37554 16.3242 3.91741 15.9131 3.63257C15.4919 3.33156 14.97 3.22161 14.4487 3.31312C13.387 3.51945 12.6872 4.53979 12.8883 5.59335L13.0059 6.23858C12.3883 6.61944 11.8591 7.1253 11.4524 7.72951C10.6495 8.89192 10.3476 10.3118 10.6054 11.7116L10.8211 12.8796C11.133 14.5491 10.74 16.2943 9.74001 17.6735C9.62567 17.8338 9.57587 18.0439 9.61112 18.2466L9.96976 20.1283C10.0223 20.4043 10.2248 20.6327 10.4909 20.7097C10.6075 20.7443 10.7325 20.774 10.8572 20.8035C11.7635 21.0184 12.8716 21.1146 14.1023 21.0733L14.1089 21.0749C14.5878 22.0972 15.5038 22.8277 16.581 23.083C17.0669 23.1982 17.5895 23.2181 18.1187 23.1215C19.7948 22.8112 21.0138 21.4145 21.1263 19.7694C22.4649 19.3029 23.5761 18.7407 24.3727 18.1318C24.5948 17.9557 24.6963 17.6745 24.6503 17.4001ZM14.709 4.79026C14.7743 4.77803 14.835 4.78544 14.8942 4.79948C14.9467 4.81192 14.9978 4.831 15.0522 4.86465C15.1398 4.93404 15.213 5.03456 15.2392 5.15875L15.2902 5.44136C15.2753 5.44479 15.2541 5.44658 15.2312 5.45509C15.1037 5.46651 14.9877 5.48748 14.8651 5.50703C14.7638 5.52467 14.6674 5.55029 14.5646 5.57454C14.5075 5.58174 14.4619 5.59882 14.4031 5.61258L14.3538 5.32341C14.3082 5.07678 14.469 4.83741 14.709 4.79026ZM17.8502 21.6496C17.0596 21.7951 16.2932 21.5163 15.7952 20.9543C15.8377 20.9505 15.8803 20.9468 15.9242 20.9363C16.1809 20.907 16.4393 20.871 16.6974 20.8351C16.7121 20.8317 16.7252 20.8347 16.7465 20.8328C17.0554 20.7881 17.3593 20.7353 17.6648 20.676C17.9555 20.6201 18.2397 20.5625 18.5254 20.4985C18.5988 20.4812 18.6789 20.4655 18.7458 20.4466C18.9809 20.3914 19.2093 20.3345 19.4394 20.2712C19.4606 20.2693 19.4835 20.2609 19.5047 20.259C19.2467 20.9679 18.6343 21.5026 17.8502 21.6496Z" fill="#4B4B4B"/>
</g>
<defs>
<clipPath id="clip0_2157_38045">
<rect width="27" height="27" fill="white" transform="translate(7) rotate(13.3371)"/>
</clipPath>
</defs>
</svg>
