<svg width="20" height="20" viewBox="0 0 20 20" fill="none" xmlns="http://www.w3.org/2000/svg">
<g id="u:calender">
<path id="Vector" d="M15.8333 3.33366H14.1667V2.50033C14.1667 2.27931 14.0789 2.06735 13.9226 1.91107C13.7663 1.75479 13.5543 1.66699 13.3333 1.66699C13.1123 1.66699 12.9003 1.75479 12.7441 1.91107C12.5878 2.06735 12.5 2.27931 12.5 2.50033V3.33366H7.49999V2.50033C7.49999 2.27931 7.41219 2.06735 7.25591 1.91107C7.09963 1.75479 6.88767 1.66699 6.66666 1.66699C6.44564 1.66699 6.23368 1.75479 6.0774 1.91107C5.92112 2.06735 5.83332 2.27931 5.83332 2.50033V3.33366H4.16666C3.50362 3.33366 2.86773 3.59705 2.39889 4.06589C1.93005 4.53473 1.66666 5.17062 1.66666 5.83366V15.8337C1.66666 16.4967 1.93005 17.1326 2.39889 17.6014C2.86773 18.0703 3.50362 18.3337 4.16666 18.3337H15.8333C16.4964 18.3337 17.1322 18.0703 17.6011 17.6014C18.0699 17.1326 18.3333 16.4967 18.3333 15.8337V5.83366C18.3333 5.17062 18.0699 4.53473 17.6011 4.06589C17.1322 3.59705 16.4964 3.33366 15.8333 3.33366ZM16.6667 15.8337C16.6667 16.0547 16.5789 16.2666 16.4226 16.4229C16.2663 16.5792 16.0543 16.667 15.8333 16.667H4.16666C3.94564 16.667 3.73368 16.5792 3.5774 16.4229C3.42112 16.2666 3.33332 16.0547 3.33332 15.8337V10.0003H16.6667V15.8337ZM16.6667 8.33366H3.33332V5.83366C3.33332 5.61265 3.42112 5.40068 3.5774 5.2444C3.73368 5.08812 3.94564 5.00033 4.16666 5.00033H5.83332V5.83366C5.83332 6.05467 5.92112 6.26663 6.0774 6.42291C6.23368 6.5792 6.44564 6.66699 6.66666 6.66699C6.88767 6.66699 7.09963 6.5792 7.25591 6.42291C7.41219 6.26663 7.49999 6.05467 7.49999 5.83366V5.00033H12.5V5.83366C12.5 6.05467 12.5878 6.26663 12.7441 6.42291C12.9003 6.5792 13.1123 6.66699 13.3333 6.66699C13.5543 6.66699 13.7663 6.5792 13.9226 6.42291C14.0789 6.26663 14.1667 6.05467 14.1667 5.83366V5.00033H15.8333C16.0543 5.00033 16.2663 5.08812 16.4226 5.2444C16.5789 5.40068 16.6667 5.61265 16.6667 5.83366V8.33366Z" fill="#71839B"/>
</g>
</svg>
