<svg width="20" height="21" viewBox="0 0 20 21" fill="none" xmlns="http://www.w3.org/2000/svg">
<g id="u:create-dashboard">
<path id="Vector" d="M8.33333 11.3333H3.33333C3.11232 11.3333 2.90036 11.4211 2.74408 11.5774C2.5878 11.7337 2.5 11.9457 2.5 12.1667V17.1667C2.5 17.3877 2.5878 17.5996 2.74408 17.7559C2.90036 17.9122 3.11232 18 3.33333 18H8.33333C8.55435 18 8.76631 17.9122 8.92259 17.7559C9.07887 17.5996 9.16667 17.3877 9.16667 17.1667V12.1667C9.16667 11.9457 9.07887 11.7337 8.92259 11.5774C8.76631 11.4211 8.55435 11.3333 8.33333 11.3333ZM7.5 16.3333H4.16667V13H7.5V16.3333ZM16.6667 3H11.6667C11.4457 3 11.2337 3.0878 11.0774 3.24408C10.9211 3.40036 10.8333 3.61232 10.8333 3.83333V8.83333C10.8333 9.05435 10.9211 9.26631 11.0774 9.42259C11.2337 9.57887 11.4457 9.66667 11.6667 9.66667H16.6667C16.8877 9.66667 17.0996 9.57887 17.2559 9.42259C17.4122 9.26631 17.5 9.05435 17.5 8.83333V3.83333C17.5 3.61232 17.4122 3.40036 17.2559 3.24408C17.0996 3.0878 16.8877 3 16.6667 3ZM15.8333 8H12.5V4.66667H15.8333V8ZM16.6667 13.8333H15V12.1667C15 11.9457 14.9122 11.7337 14.7559 11.5774C14.5996 11.4211 14.3877 11.3333 14.1667 11.3333C13.9457 11.3333 13.7337 11.4211 13.5774 11.5774C13.4211 11.7337 13.3333 11.9457 13.3333 12.1667V13.8333H11.6667C11.4457 13.8333 11.2337 13.9211 11.0774 14.0774C10.9211 14.2337 10.8333 14.4457 10.8333 14.6667C10.8333 14.8877 10.9211 15.0996 11.0774 15.2559C11.2337 15.4122 11.4457 15.5 11.6667 15.5H13.3333V17.1667C13.3333 17.3877 13.4211 17.5996 13.5774 17.7559C13.7337 17.9122 13.9457 18 14.1667 18C14.3877 18 14.5996 17.9122 14.7559 17.7559C14.9122 17.5996 15 17.3877 15 17.1667V15.5H16.6667C16.8877 15.5 17.0996 15.4122 17.2559 15.2559C17.4122 15.0996 17.5 14.8877 17.5 14.6667C17.5 14.4457 17.4122 14.2337 17.2559 14.0774C17.0996 13.9211 16.8877 13.8333 16.6667 13.8333ZM8.33333 3H3.33333C3.11232 3 2.90036 3.0878 2.74408 3.24408C2.5878 3.40036 2.5 3.61232 2.5 3.83333V8.83333C2.5 9.05435 2.5878 9.26631 2.74408 9.42259C2.90036 9.57887 3.11232 9.66667 3.33333 9.66667H8.33333C8.55435 9.66667 8.76631 9.57887 8.92259 9.42259C9.07887 9.26631 9.16667 9.05435 9.16667 8.83333V3.83333C9.16667 3.61232 9.07887 3.40036 8.92259 3.24408C8.76631 3.0878 8.55435 3 8.33333 3ZM7.5 8H4.16667V4.66667H7.5V8Z" fill="#71839B"/>
</g>
</svg>
