<svg width="20" height="21" viewBox="0 0 20 21" fill="none" xmlns="http://www.w3.org/2000/svg">
<g id="u:home-alt">
<path id="Vector" d="M16.6667 7.16643L11.6667 2.78309C11.2083 2.37313 10.6149 2.14648 9.99999 2.14648C9.38504 2.14648 8.79167 2.37313 8.33332 2.78309L3.33332 7.16643C3.06863 7.40316 2.8574 7.69356 2.71371 8.0183C2.57002 8.34304 2.49716 8.69466 2.49999 9.04976V16.3331C2.49999 16.9961 2.76338 17.632 3.23222 18.1009C3.70106 18.5697 4.33695 18.8331 4.99999 18.8331H15C15.663 18.8331 16.2989 18.5697 16.7678 18.1009C17.2366 17.632 17.5 16.9961 17.5 16.3331V9.04143C17.5016 8.68773 17.4282 8.33771 17.2845 8.0145C17.1409 7.69128 16.9303 7.40222 16.6667 7.16643ZM11.6667 17.1664H8.33332V12.9998C8.33332 12.7787 8.42112 12.5668 8.5774 12.4105C8.73368 12.2542 8.94564 12.1664 9.16665 12.1664H10.8333C11.0543 12.1664 11.2663 12.2542 11.4226 12.4105C11.5789 12.5668 11.6667 12.7787 11.6667 12.9998V17.1664ZM15.8333 16.3331C15.8333 16.5541 15.7455 16.7661 15.5892 16.9223C15.433 17.0786 15.221 17.1664 15 17.1664H13.3333V12.9998C13.3333 12.3367 13.0699 11.7008 12.6011 11.232C12.1322 10.7632 11.4964 10.4998 10.8333 10.4998H9.16665C8.50361 10.4998 7.86773 10.7632 7.39889 11.232C6.93005 11.7008 6.66665 12.3367 6.66665 12.9998V17.1664H4.99999C4.77897 17.1664 4.56701 17.0786 4.41073 16.9223C4.25445 16.7661 4.16665 16.5541 4.16665 16.3331V9.04143C4.1668 8.92311 4.19215 8.80617 4.241 8.69841C4.28986 8.59065 4.3611 8.49452 4.44999 8.41643L9.44999 4.04143C9.60206 3.90783 9.79756 3.83415 9.99999 3.83415C10.2024 3.83415 10.3979 3.90783 10.55 4.04143L15.55 8.41643C15.6389 8.49452 15.7101 8.59065 15.759 8.69841C15.8078 8.80617 15.8332 8.92311 15.8333 9.04143V16.3331Z" fill="#71839B"/>
</g>
</svg>
