<svg width="20" height="20" viewBox="0 0 20 20" fill="none" xmlns="http://www.w3.org/2000/svg">
<g id="u:angle-right-b">
<path id="Vector" d="M12.95 9.40796L8.23334 4.69962C8.15587 4.62152 8.0637 4.55952 7.96215 4.51721C7.8606 4.47491 7.75168 4.45312 7.64167 4.45312C7.53166 4.45312 7.42274 4.47491 7.32119 4.51721C7.21964 4.55952 7.12747 4.62152 7.05001 4.69962C6.8948 4.85576 6.80768 5.06697 6.80768 5.28712C6.80768 5.50728 6.8948 5.71849 7.05001 5.87462L11.175 10.0413L7.05001 14.1663C6.8948 14.3224 6.80768 14.5336 6.80768 14.7538C6.80768 14.9739 6.8948 15.1852 7.05001 15.3413C7.12718 15.42 7.21922 15.4827 7.32078 15.5256C7.42235 15.5685 7.53142 15.5908 7.64167 15.5913C7.75193 15.5908 7.861 15.5685 7.96256 15.5256C8.06412 15.4827 8.15616 15.42 8.23334 15.3413L12.95 10.633C13.0346 10.5549 13.1021 10.4602 13.1483 10.3548C13.1944 10.2494 13.2183 10.1355 13.2183 10.0205C13.2183 9.90537 13.1944 9.79153 13.1483 9.68612C13.1021 9.5807 13.0346 9.48599 12.95 9.40796Z" fill="#71839B"/>
</g>
</svg>
