<svg width="11" height="10" viewBox="0 0 11 10" fill="none" xmlns="http://www.w3.org/2000/svg">
<g id="Plus">
<path id="Vector" d="M9.60414 4.49999H5.56034V0.499968C5.56034 0.224029 5.33386 0 5.0548 0C4.77583 0 4.54935 0.224029 4.54935 0.499968V4.49999H0.505452C0.226486 4.49999 0 4.72402 0 4.99995C0 5.27599 0.226486 5.50001 0.505452 5.50001H4.54935V9.49994C4.54935 9.77597 4.77583 10 5.0548 10C5.33386 10 5.56034 9.77597 5.56034 9.49994V5.50001H9.60414C9.8832 5.50001 10.1097 5.27599 10.1097 4.99995C10.1097 4.72402 9.8832 4.49999 9.60414 4.49999Z" fill="white"/>
</g>
</svg>
