<svg width="20" height="21" viewBox="0 0 20 21" fill="none" xmlns="http://www.w3.org/2000/svg">
<g id="u:setting">
<path id="Vector" d="M16.5833 11.0505C16.4497 10.8984 16.376 10.7029 16.376 10.5005C16.376 10.2981 16.4497 10.1026 16.5833 9.95048L17.65 8.75048C17.7675 8.61937 17.8405 8.4544 17.8585 8.27924C17.8765 8.10407 17.8385 7.92772 17.75 7.77548L16.0833 4.89215C15.9957 4.74008 15.8624 4.61955 15.7023 4.54772C15.5422 4.4759 15.3635 4.45645 15.1917 4.49215L13.625 4.80882C13.4256 4.85001 13.2181 4.81681 13.0416 4.71548C12.865 4.61416 12.7317 4.45172 12.6667 4.25882L12.1583 2.73382C12.1024 2.5683 11.9959 2.42454 11.8539 2.32285C11.7118 2.22116 11.5414 2.1667 11.3667 2.16715H8.03333C7.85161 2.15766 7.67177 2.20792 7.5213 2.31024C7.37082 2.41257 7.25798 2.56133 7.2 2.73382L6.73333 4.25882C6.66833 4.45172 6.53497 4.61416 6.35842 4.71548C6.18187 4.81681 5.97434 4.85001 5.77499 4.80882L4.16666 4.49215C4.00379 4.46913 3.83774 4.49483 3.68945 4.56602C3.54116 4.6372 3.41725 4.75067 3.33333 4.89215L1.66666 7.77548C1.57596 7.92602 1.53518 8.10139 1.55015 8.2765C1.56511 8.45162 1.63506 8.61752 1.74999 8.75048L2.80833 9.95048C2.94193 10.1026 3.01561 10.2981 3.01561 10.5005C3.01561 10.7029 2.94193 10.8984 2.80833 11.0505L1.74999 12.2505C1.63506 12.3834 1.56511 12.5493 1.55015 12.7245C1.53518 12.8996 1.57596 13.0749 1.66666 13.2255L3.33333 16.1088C3.42091 16.2609 3.55426 16.3814 3.71437 16.4532C3.87448 16.5251 4.05318 16.5445 4.225 16.5088L5.79166 16.1921C5.99101 16.151 6.19854 16.1842 6.37509 16.2855C6.55164 16.3868 6.685 16.5492 6.74999 16.7421L7.25833 18.2671C7.31631 18.4396 7.42916 18.5884 7.57963 18.6907C7.73011 18.793 7.90994 18.8433 8.09166 18.8338H11.425C11.5997 18.8343 11.7701 18.7798 11.9122 18.6781C12.0542 18.5764 12.1608 18.4327 12.2167 18.2671L12.725 16.7421C12.79 16.5492 12.9234 16.3868 13.0999 16.2855C13.2764 16.1842 13.484 16.151 13.6833 16.1921L15.25 16.5088C15.4218 16.5445 15.6005 16.5251 15.7606 16.4532C15.9207 16.3814 16.0541 16.2609 16.1417 16.1088L17.8083 13.2255C17.8968 13.0732 17.9348 12.8969 17.9168 12.7217C17.8989 12.5466 17.8259 12.3816 17.7083 12.2505L16.5833 11.0505ZM15.3417 12.1671L16.0083 12.9171L14.9417 14.7671L13.9583 14.5671C13.3581 14.4445 12.7338 14.5464 12.2038 14.8537C11.6738 15.1609 11.2751 15.652 11.0833 16.2338L10.7667 17.1671H8.63333L8.33333 16.2171C8.14154 15.6354 7.74281 15.1442 7.21283 14.837C6.68285 14.5297 6.05851 14.4278 5.45833 14.5505L4.47499 14.7505L3.39166 12.9088L4.05833 12.1588C4.46829 11.7005 4.69494 11.1071 4.69494 10.4921C4.69494 9.87721 4.46829 9.28383 4.05833 8.82548L3.39166 8.07548L4.45833 6.24215L5.44166 6.44215C6.04185 6.56483 6.66618 6.46288 7.19617 6.15565C7.72615 5.84841 8.12487 5.35728 8.31666 4.77548L8.63333 3.83382H10.7667L11.0833 4.78382C11.2751 5.36561 11.6738 5.85675 12.2038 6.16398C12.7338 6.47122 13.3581 6.57317 13.9583 6.45048L14.9417 6.25048L16.0083 8.10048L15.3417 8.85048C14.9363 9.30778 14.7125 9.89772 14.7125 10.5088C14.7125 11.1199 14.9363 11.7098 15.3417 12.1671ZM9.7 7.16715C9.04072 7.16715 8.39626 7.36265 7.84809 7.72892C7.29993 8.09519 6.87269 8.61578 6.6204 9.22487C6.3681 9.83396 6.30209 10.5042 6.43071 11.1508C6.55933 11.7974 6.8768 12.3913 7.34297 12.8575C7.80915 13.3237 8.40309 13.6411 9.04969 13.7698C9.6963 13.8984 10.3665 13.8324 10.9756 13.5801C11.5847 13.3278 12.1053 12.9005 12.4716 12.3524C12.8378 11.8042 13.0333 11.1598 13.0333 10.5005C13.0333 9.61643 12.6821 8.76858 12.057 8.14346C11.4319 7.51834 10.5841 7.16715 9.7 7.16715ZM9.7 12.1671C9.37036 12.1671 9.04813 12.0694 8.77404 11.8863C8.49996 11.7031 8.28634 11.4428 8.1602 11.1383C8.03405 10.8337 8.00104 10.4986 8.06535 10.1753C8.12966 9.85203 8.2884 9.55506 8.52148 9.32197C8.75457 9.08888 9.05154 8.93015 9.37484 8.86584C9.69815 8.80153 10.0333 8.83454 10.3378 8.96068C10.6423 9.08683 10.9026 9.30045 11.0858 9.57453C11.2689 9.84861 11.3667 10.1708 11.3667 10.5005C11.3667 10.9425 11.1911 11.3664 10.8785 11.679C10.5659 11.9916 10.142 12.1671 9.7 12.1671Z" fill="#71839B"/>
</g>
</svg>
