<svg width="28" height="33" viewBox="0 0 28 33" fill="none" xmlns="http://www.w3.org/2000/svg">
<g id="back btn">
<path id="Path" d="M14 0.0429688C6.286 0.0429688 0 7.23226 0 16.0905C0 24.9327 6.286 32.138 14 32.138C21.728 32.138 28 24.9327 28 16.0905C28 7.3824 21.9388 0.287153 14.3917 0.0491378L14 0.0429688Z" fill="white"/>
<g id="Group 409">
<path id="Path_2" opacity="0.5" d="M16.758 20.8106C17.178 21.2759 17.178 22.0302 16.772 22.5116C16.562 22.7523 16.296 22.8646 16.016 22.8646C15.75 22.8646 15.484 22.7523 15.288 22.5116L10.402 16.9431C10.206 16.7184 10.094 16.4135 10.094 16.0926C10.094 15.7716 10.206 15.4667 10.402 15.2421L15.288 9.67357C15.694 9.19214 16.352 9.19214 16.772 9.67357C17.178 10.1389 17.178 10.9092 16.758 11.3746L12.628 16.0926L16.758 20.8106Z" fill="#030229"/>
</g>
</g>
</svg>
