<svg width="20" height="20" viewBox="0 0 20 20" fill="none" xmlns="http://www.w3.org/2000/svg">
<g id="u:money-bill">
<path id="Vector" d="M5.00001 9.16699C4.83519 9.16699 4.67408 9.21587 4.53703 9.30743C4.39999 9.399 4.29318 9.52915 4.23011 9.68142C4.16704 9.83369 4.15053 10.0012 4.18269 10.1629C4.21484 10.3246 4.29421 10.473 4.41075 10.5896C4.5273 10.7061 4.67578 10.7855 4.83743 10.8176C4.99909 10.8498 5.16664 10.8333 5.31891 10.7702C5.47118 10.7072 5.60133 10.6003 5.6929 10.4633C5.78447 10.3263 5.83334 10.1651 5.83334 10.0003C5.83334 9.77931 5.74555 9.56735 5.58927 9.41107C5.43298 9.25479 5.22102 9.16699 5.00001 9.16699ZM15 9.16699C14.8352 9.16699 14.6741 9.21587 14.537 9.30743C14.4 9.399 14.2932 9.52915 14.2301 9.68142C14.167 9.83369 14.1505 10.0012 14.1827 10.1629C14.2148 10.3246 14.2942 10.473 14.4108 10.5896C14.5273 10.7061 14.6758 10.7855 14.8374 10.8176C14.9991 10.8498 15.1666 10.8333 15.3189 10.7702C15.4712 10.7072 15.6013 10.6003 15.6929 10.4633C15.7845 10.3263 15.8333 10.1651 15.8333 10.0003C15.8333 9.77931 15.7455 9.56735 15.5893 9.41107C15.433 9.25479 15.221 9.16699 15 9.16699ZM16.6667 4.16699H3.33334C2.6703 4.16699 2.03442 4.43038 1.56558 4.89923C1.09674 5.36807 0.833344 6.00395 0.833344 6.66699V13.3337C0.833344 13.9967 1.09674 14.6326 1.56558 15.1014C2.03442 15.5703 2.6703 15.8337 3.33334 15.8337H16.6667C17.3297 15.8337 17.9656 15.5703 18.4344 15.1014C18.9033 14.6326 19.1667 13.9967 19.1667 13.3337V6.66699C19.1667 6.00395 18.9033 5.36807 18.4344 4.89923C17.9656 4.43038 17.3297 4.16699 16.6667 4.16699ZM17.5 13.3337C17.5 13.5547 17.4122 13.7666 17.2559 13.9229C17.0997 14.0792 16.8877 14.167 16.6667 14.167H3.33334C3.11233 14.167 2.90037 14.0792 2.74409 13.9229C2.58781 13.7666 2.50001 13.5547 2.50001 13.3337V6.66699C2.50001 6.44598 2.58781 6.23402 2.74409 6.07774C2.90037 5.92146 3.11233 5.83366 3.33334 5.83366H16.6667C16.8877 5.83366 17.0997 5.92146 17.2559 6.07774C17.4122 6.23402 17.5 6.44598 17.5 6.66699V13.3337ZM10 7.50033C9.50556 7.50033 9.02221 7.64695 8.61108 7.92165C8.19996 8.19636 7.87953 8.5868 7.69031 9.04362C7.50109 9.50043 7.45158 10.0031 7.54805 10.4881C7.64451 10.973 7.88261 11.4185 8.23224 11.7681C8.58187 12.1177 9.02733 12.3558 9.51228 12.4523C9.99724 12.5488 10.4999 12.4992 10.9567 12.31C11.4135 12.1208 11.804 11.8004 12.0787 11.3893C12.3534 10.9781 12.5 10.4948 12.5 10.0003C12.5 9.33728 12.2366 8.7014 11.7678 8.23256C11.2989 7.76372 10.6631 7.50033 10 7.50033ZM10 10.8337C9.83519 10.8337 9.67408 10.7848 9.53703 10.6932C9.39999 10.6016 9.29318 10.4715 9.23011 10.3192C9.16704 10.167 9.15053 9.9994 9.18269 9.83775C9.21484 9.6761 9.29421 9.52761 9.41075 9.41107C9.5273 9.29453 9.67578 9.21516 9.83743 9.183C9.99908 9.15085 10.1666 9.16735 10.3189 9.23043C10.4712 9.2935 10.6013 9.40031 10.6929 9.53735C10.7845 9.67439 10.8333 9.83551 10.8333 10.0003C10.8333 10.2213 10.7455 10.4333 10.5893 10.5896C10.433 10.7459 10.221 10.8337 10 10.8337Z" fill="#71839B"/>
</g>
</svg>
