<svg width="20" height="21" viewBox="0 0 20 21" fill="none" xmlns="http://www.w3.org/2000/svg">
<g id="u:clipboard-notes">
<path id="Vector" d="M10.8333 12.167H7.50001C7.279 12.167 7.06703 12.2548 6.91075 12.4111C6.75447 12.5674 6.66668 12.7793 6.66668 13.0003C6.66668 13.2213 6.75447 13.4333 6.91075 13.5896C7.06703 13.7459 7.279 13.8337 7.50001 13.8337H10.8333C11.0544 13.8337 11.2663 13.7459 11.4226 13.5896C11.5789 13.4333 11.6667 13.2213 11.6667 13.0003C11.6667 12.7793 11.5789 12.5674 11.4226 12.4111C11.2663 12.2548 11.0544 12.167 10.8333 12.167ZM14.1667 3.83366H13.1833C13.0114 3.34737 12.6933 2.92616 12.2726 2.62777C11.8518 2.32939 11.3491 2.16844 10.8333 2.16699H9.16668C8.65089 2.16844 8.14818 2.32939 7.72746 2.62777C7.30674 2.92616 6.9886 3.34737 6.81668 3.83366H5.83334C5.1703 3.83366 4.53442 4.09705 4.06558 4.56589C3.59674 5.03473 3.33334 5.67062 3.33334 6.33366V16.3337C3.33334 16.9967 3.59674 17.6326 4.06558 18.1014C4.53442 18.5703 5.1703 18.8337 5.83334 18.8337H14.1667C14.8297 18.8337 15.4656 18.5703 15.9344 18.1014C16.4033 17.6326 16.6667 16.9967 16.6667 16.3337V6.33366C16.6667 5.67062 16.4033 5.03473 15.9344 4.56589C15.4656 4.09705 14.8297 3.83366 14.1667 3.83366ZM8.33334 4.66699C8.33334 4.44598 8.42114 4.23402 8.57742 4.07774C8.7337 3.92146 8.94566 3.83366 9.16668 3.83366H10.8333C11.0544 3.83366 11.2663 3.92146 11.4226 4.07774C11.5789 4.23402 11.6667 4.44598 11.6667 4.66699V5.50033H8.33334V4.66699ZM15 16.3337C15 16.5547 14.9122 16.7666 14.7559 16.9229C14.5997 17.0792 14.3877 17.167 14.1667 17.167H5.83334C5.61233 17.167 5.40037 17.0792 5.24409 16.9229C5.08781 16.7666 5.00001 16.5547 5.00001 16.3337V6.33366C5.00001 6.11265 5.08781 5.90068 5.24409 5.7444C5.40037 5.58812 5.61233 5.50033 5.83334 5.50033H6.66668V6.33366C6.66668 6.55467 6.75447 6.76663 6.91075 6.92291C7.06703 7.0792 7.279 7.16699 7.50001 7.16699H12.5C12.721 7.16699 12.933 7.0792 13.0893 6.92291C13.2455 6.76663 13.3333 6.55467 13.3333 6.33366V5.50033H14.1667C14.3877 5.50033 14.5997 5.58812 14.7559 5.7444C14.9122 5.90068 15 6.11265 15 6.33366V16.3337ZM12.5 8.83366H7.50001C7.279 8.83366 7.06703 8.92146 6.91075 9.07774C6.75447 9.23402 6.66668 9.44598 6.66668 9.66699C6.66668 9.88801 6.75447 10.1 6.91075 10.2562C7.06703 10.4125 7.279 10.5003 7.50001 10.5003H12.5C12.721 10.5003 12.933 10.4125 13.0893 10.2562C13.2455 10.1 13.3333 9.88801 13.3333 9.66699C13.3333 9.44598 13.2455 9.23402 13.0893 9.07774C12.933 8.92146 12.721 8.83366 12.5 8.83366Z" fill="#71839B"/>
</g>
</svg>
