<svg width="20" height="21" viewBox="0 0 20 21" fill="none" xmlns="http://www.w3.org/2000/svg">
<g id="u:bell">
<path id="Vector" d="M15 11.4837V8.83366C14.9988 7.65293 14.5798 6.51072 13.8172 5.6093C13.0546 4.70789 11.9976 4.10545 10.8333 3.90866V3.00033C10.8333 2.77931 10.7455 2.56735 10.5893 2.41107C10.433 2.25479 10.221 2.16699 10 2.16699C9.779 2.16699 9.56703 2.25479 9.41075 2.41107C9.25447 2.56735 9.16668 2.77931 9.16668 3.00033V3.90866C8.00246 4.10545 6.94545 4.70789 6.18283 5.6093C5.42022 6.51072 5.00121 7.65293 5.00001 8.83366V11.4837C4.51372 11.6556 4.09251 11.9737 3.79413 12.3944C3.49574 12.8152 3.33479 13.3179 3.33334 13.8337V15.5003C3.33334 15.7213 3.42114 15.9333 3.57742 16.0896C3.7337 16.2459 3.94566 16.3337 4.16668 16.3337H6.78334C6.97525 17.0398 7.39418 17.6632 7.97551 18.1076C8.55684 18.552 9.26826 18.7928 10 18.7928C10.7318 18.7928 11.4432 18.552 12.0245 18.1076C12.6058 17.6632 13.0248 17.0398 13.2167 16.3337H15.8333C16.0544 16.3337 16.2663 16.2459 16.4226 16.0896C16.5789 15.9333 16.6667 15.7213 16.6667 15.5003V13.8337C16.6652 13.3179 16.5043 12.8152 16.2059 12.3944C15.9075 11.9737 15.4863 11.6556 15 11.4837ZM6.66668 8.83366C6.66668 7.9496 7.01787 7.10176 7.64299 6.47664C8.26811 5.85151 9.11595 5.50033 10 5.50033C10.8841 5.50033 11.7319 5.85151 12.357 6.47664C12.9822 7.10176 13.3333 7.9496 13.3333 8.83366V11.3337H6.66668V8.83366ZM10 17.167C9.70915 17.1652 9.42382 17.0874 9.17237 16.9412C8.92092 16.795 8.7121 16.5856 8.56668 16.3337H11.4333C11.2879 16.5856 11.0791 16.795 10.8277 16.9412C10.5762 17.0874 10.2909 17.1652 10 17.167ZM15 14.667H5.00001V13.8337C5.00001 13.6126 5.08781 13.4007 5.24409 13.2444C5.40037 13.0881 5.61233 13.0003 5.83334 13.0003H14.1667C14.3877 13.0003 14.5997 13.0881 14.7559 13.2444C14.9122 13.4007 15 13.6126 15 13.8337V14.667Z" fill="#71839B"/>
</g>
</svg>
