<svg width="20" height="21" viewBox="0 0 20 21" fill="none" xmlns="http://www.w3.org/2000/svg">
<g id="u:box">
<path id="Vector" d="M17.075 6.76655C17.0703 6.74458 17.0703 6.72185 17.075 6.69988C17.071 6.68065 17.071 6.66078 17.075 6.64155V6.56655L17.025 6.44155C17.0047 6.40744 16.9794 6.37655 16.95 6.34988L16.875 6.28322H16.8333L13.55 4.20822L10.45 2.29155C10.3783 2.23466 10.2962 2.19221 10.2083 2.16655H10.1417C10.0672 2.15412 9.99115 2.15412 9.91666 2.16655H9.83333C9.73653 2.18796 9.64372 2.22452 9.55833 2.27488L3.33333 6.14988L3.25833 6.20822L3.18333 6.27488L3.1 6.33322L3.05833 6.38322L3.00833 6.50822V6.58322V6.63322C3.00023 6.68848 3.00023 6.74462 3.00833 6.79988V14.0749C3.00805 14.2165 3.04386 14.3559 3.11239 14.4798C3.18092 14.6037 3.2799 14.7082 3.4 14.7832L9.65 18.6499L9.775 18.6999H9.84166C9.98265 18.7446 10.134 18.7446 10.275 18.6999H10.3417L10.4667 18.6499L16.6667 14.8415C16.7868 14.7665 16.8857 14.6621 16.9543 14.5381C17.0228 14.4142 17.0586 14.2748 17.0583 14.1332V6.85822C17.0583 6.85822 17.075 6.79988 17.075 6.76655ZM10 3.97488L11.4833 4.89155L6.825 7.77488L5.33333 6.85822L10 3.97488ZM9.16666 16.4749L4.58333 13.6749V8.34988L9.16666 11.1832V16.4749ZM10 9.71655L8.40833 8.75822L13.0667 5.86655L14.6667 6.85822L10 9.71655ZM15.4167 13.6499L10.8333 16.4999V11.1832L15.4167 8.34988V13.6499Z" fill="#71839B"/>
</g>
</svg>
