<svg width="20" height="21" viewBox="0 0 20 21" fill="none" xmlns="http://www.w3.org/2000/svg">
<g id="u:user-circle">
<path id="Vector" d="M10 2.16699C8.38373 2.17006 6.80324 2.64308 5.45102 3.52844C4.09881 4.4138 3.03325 5.67328 2.38412 7.15347C1.73499 8.63366 1.53031 10.2707 1.79502 11.8651C2.05973 13.4596 2.7824 14.9426 3.875 16.1337C4.65535 16.9795 5.60245 17.6546 6.65661 18.1163C7.71078 18.5781 8.84915 18.8164 10 18.8164C11.1508 18.8164 12.2892 18.5781 13.3434 18.1163C14.3975 17.6546 15.3446 16.9795 16.125 16.1337C17.2176 14.9426 17.9403 13.4596 18.205 11.8651C18.4697 10.2707 18.265 8.63366 17.6159 7.15347C16.9668 5.67328 15.9012 4.4138 14.549 3.52844C13.1968 2.64308 11.6163 2.17006 10 2.16699ZM10 17.167C8.27372 17.1644 6.61576 16.4922 5.375 15.292C5.7517 14.3749 6.39253 13.5906 7.21604 13.0386C8.03956 12.4866 9.00859 12.1918 10 12.1918C10.9914 12.1918 11.9604 12.4866 12.784 13.0386C13.6075 13.5906 14.2483 14.3749 14.625 15.292C13.3842 16.4922 11.7263 17.1644 10 17.167ZM8.33333 8.83366C8.33333 8.50402 8.43108 8.18179 8.61422 7.90771C8.79735 7.63363 9.05765 7.42001 9.36219 7.29386C9.66674 7.16771 10.0018 7.13471 10.3252 7.19902C10.6485 7.26333 10.9454 7.42206 11.1785 7.65515C11.4116 7.88824 11.5703 8.18521 11.6346 8.50851C11.699 8.83181 11.6659 9.16692 11.5398 9.47146C11.4137 9.77601 11.2 10.0363 10.926 10.2194C10.6519 10.4026 10.3296 10.5003 10 10.5003C9.55797 10.5003 9.13405 10.3247 8.82149 10.0122C8.50893 9.69961 8.33333 9.27569 8.33333 8.83366ZM15.7583 13.8337C15.0138 12.5601 13.8678 11.5695 12.5 11.017C12.9243 10.5359 13.2008 9.94254 13.2962 9.30819C13.3917 8.67384 13.3021 8.02542 13.0381 7.44074C12.7742 6.85606 12.3472 6.35996 11.8083 6.01196C11.2694 5.66397 10.6415 5.47887 10 5.47887C9.35851 5.47887 8.73064 5.66397 8.19174 6.01196C7.65285 6.35996 7.22581 6.85606 6.96187 7.44074C6.69794 8.02542 6.60832 8.67384 6.70377 9.30819C6.79923 9.94254 7.07569 10.5359 7.5 11.017C6.13217 11.5695 4.98622 12.5601 4.24167 13.8337C3.64829 12.8229 3.33477 11.6724 3.33333 10.5003C3.33333 8.73222 4.03571 7.03652 5.28596 5.78628C6.5362 4.53604 8.23189 3.83366 10 3.83366C11.7681 3.83366 13.4638 4.53604 14.714 5.78628C15.9643 7.03652 16.6667 8.73222 16.6667 10.5003C16.6652 11.6724 16.3517 12.8229 15.7583 13.8337Z" fill="#71839B"/>
</g>
</svg>
