<svg width="18" height="17" viewBox="0 0 18 17" fill="none" xmlns="http://www.w3.org/2000/svg">
<g id="icon">
<path id="vector" fill-rule="evenodd" clip-rule="evenodd" d="M8.99999 1.41699C5.08797 1.41699 1.91666 4.58831 1.91666 8.50033C1.91666 12.4123 5.08797 15.5837 8.99999 15.5837C12.912 15.5837 16.0833 12.4123 16.0833 8.50033C16.0833 4.58831 12.912 1.41699 8.99999 1.41699ZM0.666656 8.50033C0.666656 3.89795 4.39762 0.166992 8.99999 0.166992C13.6024 0.166992 17.3333 3.89795 17.3333 8.50033C17.3333 13.1027 13.6024 16.8337 8.99999 16.8337C4.39762 16.8337 0.666656 13.1027 0.666656 8.50033Z" fill="#71839B"/>
<path id="vector_2" fill-rule="evenodd" clip-rule="evenodd" d="M9.00001 4.95898C7.97817 4.95898 7.14981 5.78735 7.14981 6.80918C7.14981 6.9602 7.16777 7.10619 7.2014 7.24546C7.2824 7.581 7.07606 7.91867 6.74052 7.99968C6.40498 8.08068 6.0673 7.87434 5.9863 7.5388C5.92967 7.3042 5.89981 7.05976 5.89981 6.80918C5.89981 5.09699 7.28782 3.70898 9.00001 3.70898C10.7122 3.70898 12.1002 5.09699 12.1002 6.80918C12.1002 8.10614 11.2693 8.88589 10.6419 9.41807C10.5579 9.48933 10.4791 9.5549 10.4052 9.61646C10.1778 9.8058 9.99596 9.95715 9.84737 10.1192C9.66333 10.3198 9.62501 10.4407 9.62501 10.5311C9.62501 10.8763 9.34519 11.1561 9.00001 11.1561C8.65483 11.1561 8.37501 10.8763 8.37501 10.5311C8.37501 9.99113 8.64609 9.57963 8.92615 9.27427C9.1375 9.04382 9.40915 8.81817 9.65025 8.61789C9.71397 8.56496 9.77555 8.51381 9.83333 8.4648C10.4435 7.94724 10.8502 7.49639 10.8502 6.80918C10.8502 5.78735 10.0218 4.95898 9.00001 4.95898ZM9.00001 12.0423C9.34519 12.0423 9.62501 12.3221 9.62501 12.6673C9.62501 13.0125 9.34519 13.2923 9.00001 13.2923C8.65483 13.2923 8.37501 13.0125 8.37501 12.6673C8.37501 12.3221 8.65483 12.0423 9.00001 12.0423Z" fill="black"/>
</g>
</svg>
