<svg width="20" height="21" viewBox="0 0 20 21" fill="none" xmlns="http://www.w3.org/2000/svg">
<g id="u:sign-out-alt">
<path id="Vector" d="M10.4917 11.3337L8.57499 13.2421C8.49688 13.3195 8.43489 13.4117 8.39258 13.5133C8.35027 13.6148 8.32849 13.7237 8.32849 13.8337C8.32849 13.9438 8.35027 14.0527 8.39258 14.1542C8.43489 14.2558 8.49688 14.3479 8.57499 14.4254C8.65246 14.5035 8.74463 14.5655 8.84618 14.6078C8.94773 14.6501 9.05665 14.6719 9.16666 14.6719C9.27667 14.6719 9.38559 14.6501 9.48714 14.6078C9.58869 14.5655 9.68085 14.5035 9.75832 14.4254L13.0917 11.0921C13.1675 11.0128 13.227 10.9194 13.2667 10.8171C13.35 10.6142 13.35 10.3866 13.2667 10.1837C13.227 10.0814 13.1675 9.988 13.0917 9.90874L9.75832 6.57541C9.68062 6.49771 9.58838 6.43608 9.48687 6.39403C9.38535 6.35198 9.27654 6.33033 9.16666 6.33033C9.05677 6.33033 8.94797 6.35198 8.84645 6.39403C8.74493 6.43608 8.65269 6.49771 8.57499 6.57541C8.49729 6.65311 8.43566 6.74535 8.39361 6.84687C8.35156 6.94839 8.32991 7.05719 8.32991 7.16708C8.32991 7.27696 8.35156 7.38577 8.39361 7.48728C8.43566 7.5888 8.49729 7.68104 8.57499 7.75874L10.4917 9.66708H2.49999C2.27898 9.66708 2.06701 9.75487 1.91073 9.91115C1.75445 10.0674 1.66666 10.2794 1.66666 10.5004C1.66666 10.7214 1.75445 10.9334 1.91073 11.0897C2.06701 11.2459 2.27898 11.3337 2.49999 11.3337H10.4917ZM9.99999 2.16708C8.44257 2.16012 6.91436 2.58975 5.58871 3.40723C4.26307 4.22472 3.19303 5.39733 2.49999 6.79208C2.40053 6.99099 2.38417 7.22126 2.45449 7.43224C2.52482 7.64322 2.67608 7.81762 2.87499 7.91707C3.0739 8.01653 3.30418 8.0329 3.51515 7.96257C3.72613 7.89224 3.90053 7.74099 3.99999 7.54208C4.52682 6.47818 5.32818 5.57426 6.32128 4.92373C7.31438 4.27321 8.46318 3.89967 9.64895 3.84174C10.8347 3.7838 12.0145 4.04356 13.0663 4.59417C14.118 5.14478 15.0037 5.96627 15.6317 6.97374C16.2598 7.98121 16.6074 9.13811 16.6387 10.3249C16.6699 11.5117 16.3837 12.6853 15.8096 13.7244C15.2355 14.7636 14.3943 15.6305 13.3729 16.2358C12.3516 16.841 11.1872 17.1625 9.99999 17.1671C8.75739 17.1725 7.53845 16.8274 6.48307 16.1714C5.42768 15.5155 4.57862 14.5753 4.03332 13.4587C3.93387 13.2598 3.75947 13.1086 3.54849 13.0382C3.33751 12.9679 3.10724 12.9843 2.90832 13.0837C2.70941 13.1832 2.55815 13.3576 2.48783 13.5686C2.4175 13.7796 2.43387 14.0098 2.53332 14.2087C3.19401 15.5383 4.19792 16.6673 5.44122 17.4788C6.68451 18.2903 8.12203 18.7549 9.60509 18.8246C11.0882 18.8942 12.5629 18.5664 13.8768 17.875C15.1907 17.1836 16.296 16.1537 17.0784 14.8919C17.8608 13.6301 18.2919 12.1822 18.3271 10.6979C18.3623 9.21363 18.0003 7.7469 17.2785 6.44943C16.5568 5.15197 15.5015 4.07088 14.2219 3.318C12.9422 2.56511 11.4847 2.16777 9.99999 2.16708Z" fill="#71839B"/>
</g>
</svg>
