<svg width="25" height="25" viewBox="0 0 25 25" fill="none" xmlns="http://www.w3.org/2000/svg">
<path d="M22.7978 5.76683C22.7094 5.59854 22.5767 5.4576 22.4141 5.3592C22.2514 5.2608 22.065 5.20869 21.8749 5.2085H3.12489C2.93514 5.20928 2.7492 5.26177 2.58706 5.36033C2.42491 5.45889 2.2927 5.59979 2.20465 5.76786C2.11659 5.93594 2.07602 6.12485 2.08729 6.31426C2.09857 6.50367 2.16126 6.68643 2.26864 6.84287L11.6436 20.3845C11.7392 20.5233 11.8671 20.6368 12.0162 20.7152C12.1654 20.7936 12.3314 20.8346 12.4999 20.8346C12.6684 20.8346 12.8344 20.7936 12.9835 20.7152C13.1327 20.6368 13.2606 20.5233 13.3561 20.3845L22.7311 6.84287C22.8396 6.68675 22.9031 6.50388 22.9149 6.31417C22.9266 6.12445 22.8861 5.93514 22.7978 5.76683ZM12.4999 17.9616L5.11239 7.29183H19.8874L12.4999 17.9616Z" fill="url(#paint0_linear_2093_19531)"/>
<defs>
<linearGradient id="paint0_linear_2093_19531" x1="12.5011" y1="5.2085" x2="12.5011" y2="20.8346" gradientUnits="userSpaceOnUse">
<stop stop-color="#0061FF"/>
<stop offset="1" stop-color="#60EFFF"/>
</linearGradient>
</defs>
</svg>
