<svg width="20" height="21" viewBox="0 0 20 21" fill="none" xmlns="http://www.w3.org/2000/svg">
<g id="mdi:dot">
<g id="Vector">
<path d="M10.825 9.67472L11.1785 9.32116L10.825 9.67472C11.0438 9.89351 11.1667 10.1903 11.1667 10.4997C11.1667 11.1485 10.6489 11.6663 10 11.6663C9.69059 11.6663 9.39385 11.5434 9.17505 11.3246L8.8215 11.6782L9.17505 11.3246C8.95626 11.1058 8.83334 10.8091 8.83334 10.4997C8.83334 10.1903 8.95626 9.89351 9.17505 9.67472C9.39385 9.45592 9.69059 9.33301 10 9.33301C10.3094 9.33301 10.6062 9.45592 10.825 9.67472Z" fill="black"/>
<path d="M10.825 9.67472L11.1785 9.32116L10.825 9.67472C11.0438 9.89351 11.1667 10.1903 11.1667 10.4997C11.1667 11.1485 10.6489 11.6663 10 11.6663C9.69059 11.6663 9.39385 11.5434 9.17505 11.3246L8.8215 11.6782L9.17505 11.3246C8.95626 11.1058 8.83334 10.8091 8.83334 10.4997C8.83334 10.1903 8.95626 9.89351 9.17505 9.67472C9.39385 9.45592 9.69059 9.33301 10 9.33301C10.3094 9.33301 10.6062 9.45592 10.825 9.67472Z" stroke="#8E8E8E"/>
<path d="M10.825 9.67472L11.1785 9.32116L10.825 9.67472C11.0438 9.89351 11.1667 10.1903 11.1667 10.4997C11.1667 11.1485 10.6489 11.6663 10 11.6663C9.69059 11.6663 9.39385 11.5434 9.17505 11.3246L8.8215 11.6782L9.17505 11.3246C8.95626 11.1058 8.83334 10.8091 8.83334 10.4997C8.83334 10.1903 8.95626 9.89351 9.17505 9.67472C9.39385 9.45592 9.69059 9.33301 10 9.33301C10.3094 9.33301 10.6062 9.45592 10.825 9.67472Z" stroke="black" stroke-opacity="0.2"/>
<path d="M10.825 9.67472L11.1785 9.32116L10.825 9.67472C11.0438 9.89351 11.1667 10.1903 11.1667 10.4997C11.1667 11.1485 10.6489 11.6663 10 11.6663C9.69059 11.6663 9.39385 11.5434 9.17505 11.3246L8.8215 11.6782L9.17505 11.3246C8.95626 11.1058 8.83334 10.8091 8.83334 10.4997C8.83334 10.1903 8.95626 9.89351 9.17505 9.67472C9.39385 9.45592 9.69059 9.33301 10 9.33301C10.3094 9.33301 10.6062 9.45592 10.825 9.67472Z" stroke="black" stroke-opacity="0.2"/>
<path d="M10.825 9.67472L11.1785 9.32116L10.825 9.67472C11.0438 9.89351 11.1667 10.1903 11.1667 10.4997C11.1667 11.1485 10.6489 11.6663 10 11.6663C9.69059 11.6663 9.39385 11.5434 9.17505 11.3246L8.8215 11.6782L9.17505 11.3246C8.95626 11.1058 8.83334 10.8091 8.83334 10.4997C8.83334 10.1903 8.95626 9.89351 9.17505 9.67472C9.39385 9.45592 9.69059 9.33301 10 9.33301C10.3094 9.33301 10.6062 9.45592 10.825 9.67472Z" stroke="black" stroke-opacity="0.2"/>
<path d="M10.825 9.67472L11.1785 9.32116L10.825 9.67472C11.0438 9.89351 11.1667 10.1903 11.1667 10.4997C11.1667 11.1485 10.6489 11.6663 10 11.6663C9.69059 11.6663 9.39385 11.5434 9.17505 11.3246L8.8215 11.6782L9.17505 11.3246C8.95626 11.1058 8.83334 10.8091 8.83334 10.4997C8.83334 10.1903 8.95626 9.89351 9.17505 9.67472C9.39385 9.45592 9.69059 9.33301 10 9.33301C10.3094 9.33301 10.6062 9.45592 10.825 9.67472Z" stroke="black" stroke-opacity="0.2"/>
<path d="M10.825 9.67472L11.1785 9.32116L10.825 9.67472C11.0438 9.89351 11.1667 10.1903 11.1667 10.4997C11.1667 11.1485 10.6489 11.6663 10 11.6663C9.69059 11.6663 9.39385 11.5434 9.17505 11.3246L8.8215 11.6782L9.17505 11.3246C8.95626 11.1058 8.83334 10.8091 8.83334 10.4997C8.83334 10.1903 8.95626 9.89351 9.17505 9.67472C9.39385 9.45592 9.69059 9.33301 10 9.33301C10.3094 9.33301 10.6062 9.45592 10.825 9.67472Z" stroke="black" stroke-opacity="0.2"/>
<path d="M10.825 9.67472L11.1785 9.32116L10.825 9.67472C11.0438 9.89351 11.1667 10.1903 11.1667 10.4997C11.1667 11.1485 10.6489 11.6663 10 11.6663C9.69059 11.6663 9.39385 11.5434 9.17505 11.3246L8.8215 11.6782L9.17505 11.3246C8.95626 11.1058 8.83334 10.8091 8.83334 10.4997C8.83334 10.1903 8.95626 9.89351 9.17505 9.67472C9.39385 9.45592 9.69059 9.33301 10 9.33301C10.3094 9.33301 10.6062 9.45592 10.825 9.67472Z" stroke="black" stroke-opacity="0.2"/>
<path d="M10.825 9.67472L11.1785 9.32116L10.825 9.67472C11.0438 9.89351 11.1667 10.1903 11.1667 10.4997C11.1667 11.1485 10.6489 11.6663 10 11.6663C9.69059 11.6663 9.39385 11.5434 9.17505 11.3246L8.8215 11.6782L9.17505 11.3246C8.95626 11.1058 8.83334 10.8091 8.83334 10.4997C8.83334 10.1903 8.95626 9.89351 9.17505 9.67472C9.39385 9.45592 9.69059 9.33301 10 9.33301C10.3094 9.33301 10.6062 9.45592 10.825 9.67472Z" stroke="black" stroke-opacity="0.2"/>
<path d="M10.825 9.67472L11.1785 9.32116L10.825 9.67472C11.0438 9.89351 11.1667 10.1903 11.1667 10.4997C11.1667 11.1485 10.6489 11.6663 10 11.6663C9.69059 11.6663 9.39385 11.5434 9.17505 11.3246L8.8215 11.6782L9.17505 11.3246C8.95626 11.1058 8.83334 10.8091 8.83334 10.4997C8.83334 10.1903 8.95626 9.89351 9.17505 9.67472C9.39385 9.45592 9.69059 9.33301 10 9.33301C10.3094 9.33301 10.6062 9.45592 10.825 9.67472Z" stroke="black" stroke-opacity="0.2"/>
<path d="M10.825 9.67472L11.1785 9.32116L10.825 9.67472C11.0438 9.89351 11.1667 10.1903 11.1667 10.4997C11.1667 11.1485 10.6489 11.6663 10 11.6663C9.69059 11.6663 9.39385 11.5434 9.17505 11.3246L8.8215 11.6782L9.17505 11.3246C8.95626 11.1058 8.83334 10.8091 8.83334 10.4997C8.83334 10.1903 8.95626 9.89351 9.17505 9.67472C9.39385 9.45592 9.69059 9.33301 10 9.33301C10.3094 9.33301 10.6062 9.45592 10.825 9.67472Z" stroke="black" stroke-opacity="0.2"/>
<path d="M10.825 9.67472L11.1785 9.32116L10.825 9.67472C11.0438 9.89351 11.1667 10.1903 11.1667 10.4997C11.1667 11.1485 10.6489 11.6663 10 11.6663C9.69059 11.6663 9.39385 11.5434 9.17505 11.3246L8.8215 11.6782L9.17505 11.3246C8.95626 11.1058 8.83334 10.8091 8.83334 10.4997C8.83334 10.1903 8.95626 9.89351 9.17505 9.67472C9.39385 9.45592 9.69059 9.33301 10 9.33301C10.3094 9.33301 10.6062 9.45592 10.825 9.67472Z" stroke="black" stroke-opacity="0.2"/>
</g>
</g>
</svg>
