<svg width="18" height="18" viewBox="0 0 18 18" fill="none" xmlns="http://www.w3.org/2000/svg">
<path d="M13.1731 0.75H5.32692C4.11345 0.751298 2.95004 1.23393 2.09198 2.09198C1.23393 2.95004 0.751298 4.11345 0.75 5.32692V13.1731C0.751298 14.3866 1.23393 15.55 2.09198 16.408C2.95004 17.2661 4.11345 17.7487 5.32692 17.75H13.1731C14.3866 17.7487 15.55 17.2661 16.408 16.408C17.2661 15.55 17.7487 14.3866 17.75 13.1731V5.32692C17.7487 4.11345 17.2661 2.95004 16.408 2.09198C15.55 1.23393 14.3866 0.751298 13.1731 0.75ZM9.25 13.1731C8.47409 13.1731 7.7156 12.943 7.07045 12.5119C6.42531 12.0808 5.92248 11.4681 5.62555 10.7513C5.32862 10.0344 5.25093 9.24565 5.4023 8.48465C5.55368 7.72364 5.92731 7.02462 6.47597 6.47597C7.02462 5.92731 7.72364 5.55368 8.48465 5.4023C9.24565 5.25093 10.0344 5.32862 10.7513 5.62555C11.4681 5.92248 12.0808 6.42531 12.5119 7.07045C12.943 7.7156 13.1731 8.47409 13.1731 9.25C13.172 10.2901 12.7583 11.2874 12.0228 12.0228C11.2874 12.7583 10.2901 13.172 9.25 13.1731ZM14.1538 5.32692C13.9599 5.32692 13.7702 5.2694 13.609 5.16163C13.4477 5.05387 13.322 4.90069 13.2477 4.72148C13.1735 4.54227 13.1541 4.34507 13.1919 4.15481C13.2298 3.96456 13.3232 3.78981 13.4603 3.65265C13.5975 3.51548 13.7723 3.42207 13.9625 3.38423C14.1528 3.34639 14.35 3.36581 14.5292 3.44004C14.7084 3.51427 14.8616 3.63998 14.9693 3.80127C15.0771 3.96255 15.1346 4.15218 15.1346 4.34615C15.1346 4.60627 15.0313 4.85573 14.8474 5.03966C14.6634 5.22359 14.414 5.32692 14.1538 5.32692ZM11.8654 9.25C11.8654 9.76727 11.712 10.2729 11.4246 10.703C11.1372 11.1331 10.7288 11.4683 10.2509 11.6663C9.77296 11.8643 9.2471 11.916 8.73976 11.8151C8.23243 11.7142 7.76641 11.4651 7.40064 11.0994C7.03488 10.7336 6.78578 10.2676 6.68487 9.76024C6.58395 9.2529 6.63575 8.72703 6.8337 8.24914C7.03165 7.77124 7.36687 7.36277 7.79697 7.07539C8.22707 6.78801 8.73273 6.63462 9.25 6.63462C9.94364 6.63462 10.6089 6.91016 11.0994 7.40064C11.5898 7.89112 11.8654 8.55636 11.8654 9.25Z" fill="black"/>
</svg>
