<svg width="17" height="17" viewBox="0 0 17 17" fill="none" xmlns="http://www.w3.org/2000/svg">
<path d="M12.4231 0H4.57692C3.36345 0.00129807 2.20004 0.483925 1.34198 1.34198C0.483925 2.20004 0.00129807 3.36345 0 4.57692V12.4231C0.00129807 13.6366 0.483925 14.8 1.34198 15.658C2.20004 16.5161 3.36345 16.9987 4.57692 17H12.4231C13.6366 16.9987 14.8 16.5161 15.658 15.658C16.5161 14.8 16.9987 13.6366 17 12.4231V4.57692C16.9987 3.36345 16.5161 2.20004 15.658 1.34198C14.8 0.483925 13.6366 0.00129807 12.4231 0ZM8.5 12.4231C7.72409 12.4231 6.9656 12.193 6.32045 11.7619C5.67531 11.3308 5.17248 10.7181 4.87555 10.0013C4.57862 9.28445 4.50093 8.49565 4.6523 7.73465C4.80368 6.97364 5.17731 6.27462 5.72597 5.72597C6.27462 5.17731 6.97364 4.80368 7.73465 4.6523C8.49565 4.50093 9.28445 4.57862 10.0013 4.87555C10.7181 5.17248 11.3308 5.67531 11.7619 6.32045C12.193 6.9656 12.4231 7.72409 12.4231 8.5C12.422 9.54013 12.0083 10.5374 11.2728 11.2728C10.5374 12.0083 9.54013 12.422 8.5 12.4231ZM13.4038 4.57692C13.2099 4.57692 13.0202 4.5194 12.859 4.41163C12.6977 4.30387 12.572 4.15069 12.4977 3.97148C12.4235 3.79227 12.4041 3.59507 12.4419 3.40481C12.4798 3.21456 12.5732 3.03981 12.7103 2.90265C12.8475 2.76548 13.0223 2.67207 13.2125 2.63423C13.4028 2.59639 13.6 2.61581 13.7792 2.69004C13.9584 2.76427 14.1116 2.88998 14.2193 3.05127C14.3271 3.21255 14.3846 3.40218 14.3846 3.59615C14.3846 3.85627 14.2813 4.10573 14.0974 4.28966C13.9134 4.47359 13.664 4.57692 13.4038 4.57692ZM11.1154 8.5C11.1154 9.01727 10.962 9.52293 10.6746 9.95303C10.3872 10.3831 9.97876 10.7183 9.50086 10.9163C9.02296 11.1143 8.4971 11.166 7.98976 11.0651C7.48243 10.9642 7.01641 10.7151 6.65064 10.3494C6.28488 9.98359 6.03578 9.51757 5.93487 9.01024C5.83395 8.5029 5.88575 7.97703 6.0837 7.49914C6.28165 7.02124 6.61687 6.61277 7.04697 6.32539C7.47707 6.03801 7.98273 5.88462 8.5 5.88462C9.19364 5.88462 9.85888 6.16016 10.3494 6.65064C10.8398 7.14112 11.1154 7.80636 11.1154 8.5Z" fill="white"/>
</svg>
