<svg width="17" height="17" viewBox="0 0 17 17" fill="none" xmlns="http://www.w3.org/2000/svg">
<path d="M16.0556 0H0.944444C0.693962 0 0.453739 0.0995036 0.276621 0.276621C0.0995036 0.453739 0 0.693962 0 0.944444V16.0556C0 16.306 0.0995036 16.5463 0.276621 16.7234C0.453739 16.9005 0.693962 17 0.944444 17H16.0556C16.306 17 16.5463 16.9005 16.7234 16.7234C16.9005 16.5463 17 16.306 17 16.0556V0.944444C17 0.693962 16.9005 0.453739 16.7234 0.276621C16.5463 0.0995036 16.306 0 16.0556 0ZM5.04239 14.4849H2.51883V6.37217H5.04239V14.4849ZM3.78061 5.26433C3.39286 5.26433 3.021 5.1103 2.74682 4.83612C2.47264 4.56195 2.31861 4.19008 2.31861 3.80233C2.31861 3.41459 2.47264 3.04272 2.74682 2.76854C3.021 2.49437 3.39286 2.34033 3.78061 2.34033C4.16836 2.34033 4.54022 2.49437 4.8144 2.76854C5.08858 3.04272 5.24261 3.41459 5.24261 3.80233C5.24261 4.19008 5.08858 4.56195 4.8144 4.83612C4.54022 5.1103 4.16836 5.26433 3.78061 5.26433ZM14.4859 14.4849H11.9652V10.54C11.9652 9.59933 11.9482 8.3895 10.6543 8.3895C9.3415 8.3895 9.14222 9.41517 9.14222 10.4739V14.4859H6.62339V6.37311H9.04117V7.48189H9.07611C9.41139 6.84439 10.2349 6.17194 11.4599 6.17194C14.0137 6.17194 14.4849 7.85117 14.4849 10.0366L14.4859 14.4849Z" fill="black"/>
</svg>
