<svg width="32" height="32" viewBox="0 0 32 32" fill="none" xmlns="http://www.w3.org/2000/svg">
<g id="icons8:minus">
<path id="Vector" d="M16 2.99365C8.832 2.99365 3 8.82565 3 15.9937C3 23.1617 8.832 28.9937 16 28.9937C23.168 28.9937 29 23.1617 29 15.9937C29 8.82565 23.168 2.99365 16 2.99365ZM16 4.99365C22.087 4.99365 27 9.90665 27 15.9937C27 22.0807 22.087 26.9937 16 26.9937C9.913 26.9937 5 22.0807 5 15.9937C5 9.90665 9.913 4.99365 16 4.99365ZM10 14.9937V16.9937H22V14.9937H10Z" fill="#FF3932"/>
</g>
</svg>
