<svg width="12" height="15" viewBox="0 0 12 15" fill="none" xmlns="http://www.w3.org/2000/svg">
<g id="pencil-alt 1" clip-path="url(#clip0_1382_19481)">
<path id="Vector" d="M11.4354 4.76948L10.4327 5.78762C10.3304 5.89142 10.1651 5.89142 10.0629 5.78762L7.64857 3.33614C7.54634 3.23234 7.54634 3.06449 7.64857 2.96069L8.65127 1.94256C9.05801 1.52956 9.71923 1.52956 10.1281 1.94256L11.4354 3.26989C11.8443 3.68288 11.8443 4.35428 11.4354 4.76948ZM6.78724 3.83527L1.0755 9.63488L0.614386 12.3183C0.551309 12.6804 0.862344 12.9941 1.21906 12.9322L3.86177 12.4618L9.5735 6.6622C9.67573 6.55839 9.67573 6.39055 9.5735 6.28675L7.15917 3.83527C7.05477 3.73147 6.88947 3.73147 6.78724 3.83527ZM3.30495 9.13796C3.18532 9.01649 3.18532 8.82214 3.30495 8.70067L6.65456 5.29953C6.77419 5.17806 6.96559 5.17806 7.08522 5.29953C7.20485 5.421 7.20485 5.61535 7.08522 5.73682L3.73561 9.13796C3.61598 9.25943 3.42458 9.25943 3.30495 9.13796ZM2.51975 10.9953H3.56378V11.797L2.16086 12.0466L1.48441 11.3597L1.7302 9.93524H2.51975V10.9953Z" fill="white"/>
</g>
<defs>
<clipPath id="clip0_1382_19481">
<rect width="11.1364" height="14.1309" fill="white" transform="translate(0.272705 0.862305)"/>
</clipPath>
</defs>
</svg>
