<svg width="24" height="24" viewBox="0 0 24 24" fill="none" xmlns="http://www.w3.org/2000/svg">
<path d="M7.73 16.5001H8.73V12.0001H7.73V16.5001ZM15.27 16.5001H16.27V7.00006H15.27V16.5001ZM11.5 16.5001H12.5V14.0001H11.5V16.5001ZM11.5 12.0001H12.5V10.0001H11.5V12.0001ZM5.616 20.0001C5.15533 20.0001 4.771 19.8461 4.463 19.5381C4.155 19.2301 4.00067 18.8454 4 18.3841V5.61606C4 5.15539 4.15433 4.77106 4.463 4.46306C4.77167 4.15506 5.156 4.00073 5.616 4.00006H18.385C18.845 4.00006 19.2293 4.15439 19.538 4.46306C19.8467 4.77173 20.0007 5.15606 20 5.61606V18.3851C20 18.8451 19.846 19.2294 19.538 19.5381C19.23 19.8467 18.8453 20.0007 18.384 20.0001H5.616ZM5.616 19.0001H18.385C18.5383 19.0001 18.6793 18.9361 18.808 18.8081C18.9367 18.6801 19.0007 18.5387 19 18.3841V5.61606C19 5.46206 18.936 5.32073 18.808 5.19206C18.68 5.06339 18.5387 4.99939 18.384 5.00006H5.616C5.462 5.00006 5.32067 5.06406 5.192 5.19206C5.06333 5.32006 4.99933 5.46139 5 5.61606V18.3851C5 18.5384 5.064 18.6794 5.192 18.8081C5.32 18.9367 5.461 19.0007 5.615 19.0001" fill="white"/>
</svg>
