<svg width="50" height="51" viewBox="0 0 50 51" fill="none" xmlns="http://www.w3.org/2000/svg">
<g id="teenyicons:password-outline">
<path id="Vector" d="M41.6667 28.8334V25.5001C41.6667 24.616 41.3155 23.7682 40.6904 23.1431C40.0653 22.5179 39.2174 22.1668 38.3334 22.1668H5.00002C4.11597 22.1668 3.26812 22.5179 2.643 23.1431C2.01788 23.7682 1.66669 24.616 1.66669 25.5001V45.5001C1.66669 46.3841 2.01788 47.232 2.643 47.8571C3.26812 48.4822 4.11597 48.8334 5.00002 48.8334H38.3334C39.2174 48.8334 40.0653 48.4822 40.6904 47.8571C41.3155 47.232 41.6667 46.3841 41.6667 45.5001V42.1668M41.6667 28.8334H28.3334C26.5652 28.8334 24.8696 29.5358 23.6193 30.786C22.3691 32.0363 21.6667 33.732 21.6667 35.5001C21.6667 37.2682 22.3691 38.9639 23.6193 40.2141C24.8696 41.4644 26.5652 42.1668 28.3334 42.1668H41.6667M41.6667 28.8334C43.4348 28.8334 45.1305 29.5358 46.3807 30.786C47.631 32.0363 48.3334 33.732 48.3334 35.5001C48.3334 37.2682 47.631 38.9639 46.3807 40.2141C45.1305 41.4644 43.4348 42.1668 41.6667 42.1668M11.6667 22.1668V12.1667C11.6667 9.51458 12.7203 6.97104 14.5956 5.09568C16.471 3.22032 19.0145 2.16675 21.6667 2.16675C24.3189 2.16675 26.8624 3.22032 28.7378 5.09568C30.6131 6.97104 31.6667 9.51458 31.6667 12.1667V22.1668M40 35.5001H43.3334M33.3334 35.5001H36.6667M26.6667 35.5001H30" stroke="url(#paint0_linear_339_16736)" stroke-width="2.13333"/>
</g>
<defs>
<linearGradient id="paint0_linear_339_16736" x1="25" y1="2.16675" x2="25" y2="48.8334" gradientUnits="userSpaceOnUse">
<stop stop-color="#0061FF"/>
<stop offset="1" stop-color="#60EFFF"/>
</linearGradient>
</defs>
</svg>
