<svg width="18" height="17" viewBox="0 0 18 17" fill="none" xmlns="http://www.w3.org/2000/svg">
<path d="M14.0341 2.66333C13.293 1.92631 12.8846 0.979797 12.8849 0H9.53476V11.7111C9.50892 12.3449 9.20177 12.9451 8.678 13.3856C8.15422 13.826 7.4547 14.0721 6.72672 14.0722C5.18718 14.0722 3.90784 12.9767 3.90784 11.6167C3.90784 9.99222 5.70759 8.77389 7.56154 9.27444V6.29C3.82111 5.85556 0.546875 8.38667 0.546875 11.6167C0.546875 14.7617 3.53922 17 6.71588 17C10.1202 17 12.8849 14.5917 12.8849 11.6167V5.67611C14.2434 6.52597 15.8744 6.98194 17.5469 6.97944V4.06111C17.5469 4.06111 15.5086 4.14611 14.0341 2.66333Z" fill="black"/>
</svg>
