<svg width="21" height="21" viewBox="0 0 21 21" fill="none" xmlns="http://www.w3.org/2000/svg">
<g id="vuesax/outline/trash">
<g id="trash">
<path id="Vector" d="M18.0001 5.84716C17.9834 5.84716 17.9584 5.84716 17.9334 5.84716C13.5251 5.4055 9.12505 5.23883 4.76672 5.6805L3.06672 5.84716C2.71672 5.8805 2.40839 5.6305 2.37505 5.2805C2.34172 4.9305 2.59172 4.6305 2.93339 4.59716L4.63339 4.4305C9.06672 3.9805 13.5584 4.1555 18.0584 4.59716C18.4001 4.6305 18.6501 4.93883 18.6167 5.2805C18.5917 5.6055 18.3167 5.84716 18.0001 5.84716Z" fill="#C92519"/>
<path id="Vector_2" d="M7.58363 5.00552C7.55029 5.00552 7.51696 5.00552 7.47529 4.99718C7.14196 4.93885 6.90863 4.61385 6.96696 4.28052L7.15029 3.18885C7.28363 2.38885 7.46696 1.28052 9.40863 1.28052H11.592C13.542 1.28052 13.7253 2.43052 13.8503 3.19718L14.0336 4.28052C14.092 4.62218 13.8586 4.94718 13.5253 4.99718C13.1836 5.05552 12.8586 4.82218 12.8086 4.48885L12.6253 3.40552C12.5086 2.68052 12.4836 2.53885 11.6003 2.53885H9.41696C8.53363 2.53885 8.51696 2.65552 8.39196 3.39718L8.20029 4.48052C8.15029 4.78885 7.88363 5.00552 7.58363 5.00552Z" fill="#C92519"/>
<path id="Vector_3" d="M13.175 19.1972H7.825C4.91666 19.1972 4.8 17.5888 4.70833 16.2888L4.16666 7.89717C4.14166 7.5555 4.40833 7.2555 4.75 7.2305C5.1 7.21383 5.39166 7.47217 5.41666 7.81383L5.95833 16.2055C6.05 17.4722 6.08333 17.9472 7.825 17.9472H13.175C14.925 17.9472 14.9583 17.4722 15.0417 16.2055L15.5833 7.81383C15.6083 7.47217 15.9083 7.21383 16.25 7.2305C16.5917 7.2555 16.8583 7.54717 16.8333 7.89717L16.2917 16.2888C16.2 17.5888 16.0833 19.1972 13.175 19.1972Z" fill="#C92519"/>
<path id="Vector_4" d="M11.8834 14.6139H9.1084C8.76673 14.6139 8.4834 14.3306 8.4834 13.9889C8.4834 13.6472 8.76673 13.3639 9.1084 13.3639H11.8834C12.2251 13.3639 12.5084 13.6472 12.5084 13.9889C12.5084 14.3306 12.2251 14.6139 11.8834 14.6139Z" fill="#C92519"/>
<path id="Vector_5" d="M12.5837 11.2805H8.41699C8.07533 11.2805 7.79199 10.9972 7.79199 10.6555C7.79199 10.3139 8.07533 10.0305 8.41699 10.0305H12.5837C12.9253 10.0305 13.2087 10.3139 13.2087 10.6555C13.2087 10.9972 12.9253 11.2805 12.5837 11.2805Z" fill="#C92519"/>
</g>
</g>
</svg>
