<svg width="25" height="25" viewBox="0 0 25 25" fill="none" xmlns="http://www.w3.org/2000/svg">
<g opacity="0.4">
<path d="M3.12478 19.7915H21.8748C22.0646 19.7909 22.2507 19.7385 22.413 19.64C22.5753 19.5416 22.7076 19.4007 22.7958 19.2326C22.884 19.0644 22.9247 18.8755 22.9134 18.686C22.9022 18.4965 22.8395 18.3136 22.7321 18.1571L13.3571 4.61543C12.9685 4.05397 12.0331 4.05397 11.6435 4.61543L2.26853 18.1571C2.16002 18.3133 2.09638 18.4962 2.08454 18.686C2.0727 18.8759 2.1131 19.0653 2.20136 19.2338C2.28962 19.4022 2.42236 19.5433 2.58516 19.6416C2.74796 19.7399 2.9346 19.7918 3.12478 19.7915ZM12.4998 7.03835L19.8873 17.7081H5.11228L12.4998 7.03835Z" fill="url(#paint0_linear_2093_19529)"/>
</g>
<defs>
<linearGradient id="paint0_linear_2093_19529" x1="12.4989" y1="4.19434" x2="12.4989" y2="19.7915" gradientUnits="userSpaceOnUse">
<stop stop-color="#0061FF"/>
<stop offset="1" stop-color="#60EFFF"/>
</linearGradient>
</defs>
</svg>
